<?xml version="1.0" encoding="UTF-8" standalone="no"?>
<!-- Generator: Adobe Illustrator 16.0.0, SVG Export Plug-In . SVG Version: 6.00 Build 0)  -->

<svg
   xmlns:dc="http://purl.org/dc/elements/1.1/"
   xmlns:cc="http://creativecommons.org/ns#"
   xmlns:rdf="http://www.w3.org/1999/02/22-rdf-syntax-ns#"
   xmlns:svg="http://www.w3.org/2000/svg"
   xmlns="http://www.w3.org/2000/svg"
   xmlns:sodipodi="http://sodipodi.sourceforge.net/DTD/sodipodi-0.dtd"
   xmlns:inkscape="http://www.inkscape.org/namespaces/inkscape"
   version="1.1"
   id="Capa_1"
   x="0px"
   y="0px"
   width="452.01px"
   height="452.01px"
   viewBox="0 0 452.01 452.01"
   style="enable-background:new 0 0 452.01 452.01;"
   xml:space="preserve"
   inkscape:version="0.91 r13725"
   sodipodi:docname="bulb13.svg"><metadata
     id="metadata41"><rdf:RDF><cc:Work
         rdf:about=""><dc:format>image/svg+xml</dc:format><dc:type
           rdf:resource="http://purl.org/dc/dcmitype/StillImage" /></cc:Work></rdf:RDF></metadata><defs
     id="defs39" /><sodipodi:namedview
     pagecolor="#ffffff"
     bordercolor="#666666"
     borderopacity="1"
     objecttolerance="10"
     gridtolerance="10"
     guidetolerance="10"
     inkscape:pageopacity="0"
     inkscape:pageshadow="2"
     inkscape:window-width="1680"
     inkscape:window-height="1013"
     id="namedview37"
     showgrid="false"
     inkscape:zoom="0.52211233"
     inkscape:cx="229.8356"
     inkscape:cy="226.005"
     inkscape:window-x="0"
     inkscape:window-y="0"
     inkscape:window-maximized="1"
     inkscape:current-layer="Capa_1" /><rect
     style="fill:#4d4d4d;fill-opacity:1;stroke:none;stroke-width:2;stroke-linecap:round;stroke-linejoin:miter;stroke-miterlimit:4;stroke-dasharray:none;stroke-dashoffset:0;stroke-opacity:1"
     id="rect4169"
     width="455.84061"
     height="459.6712"
     x="0"
     y="-1.9152967" /><g
     id="g3"><path
       d="M226.005,0C101.186,0,0,101.186,0,226.005C0,350.824,101.186,452.01,226.005,452.01   c124.819,0,226.005-101.186,226.005-226.005C452.01,101.186,350.824,0,226.005,0z M215.491,106.938V77.964   c0-5.809,4.707-10.516,10.514-10.516c5.808,0,10.517,4.708,10.517,10.516v28.974l0,0c0,5.808-4.709,10.516-10.517,10.516   C220.197,117.454,215.491,112.746,215.491,106.938L215.491,106.938z M126.592,200.871c-0.899,5.101-5.336,8.691-10.343,8.691   c-0.606,0-1.22-0.053-1.838-0.162l-28.535-5.031c-5.72-1.009-9.539-6.462-8.531-12.181c1.01-5.72,6.465-9.538,12.182-8.531   l28.535,5.032C123.782,189.697,127.602,195.151,126.592,200.871z M146.304,139.775l-18.624-22.196   c-3.733-4.449-3.153-11.082,1.295-14.814c4.45-3.733,11.082-3.153,14.814,1.296l18.625,22.195   c3.733,4.449,3.153,11.082-1.296,14.815c-1.969,1.653-4.369,2.46-6.753,2.46C151.363,143.531,148.384,142.253,146.304,139.775z    M282.158,276.986c-8.87,13.016-18.033,26.463-18.588,44.647c-0.137,4.488-3.338,8.175-7.558,9.089   c3.904,1.221,6.736,4.864,6.736,9.17c0,3.811-2.224,7.092-5.438,8.646c3.215,1.553,5.438,4.835,5.438,8.646   c0,5.305-4.3,9.605-9.606,9.605h-5.871c-1.813,10.104-10.642,17.771-21.267,17.771c-10.624,0-19.453-7.668-21.266-17.771h-5.871   c-5.306,0-9.607-4.301-9.607-9.605c0-3.811,2.224-7.093,5.44-8.646c-3.216-1.554-5.44-4.835-5.44-8.646   c0-4.326,2.859-7.98,6.79-9.185c-4.223-0.914-7.426-4.601-7.563-9.091c-0.554-18.189-9.732-31.639-18.608-44.645   c-10.646-15.605-21.65-31.734-21.65-60.141c0-40.745,34.891-73.893,77.776-73.893c42.887,0,77.777,33.148,77.777,73.893   C303.782,245.258,292.789,261.388,282.158,276.986z M305.708,139.775c-2.081,2.478-5.061,3.756-8.062,3.756   c-2.384,0-4.782-0.807-6.753-2.46c-4.447-3.733-5.029-10.366-1.297-14.815l18.625-22.195c3.732-4.449,10.365-5.03,14.814-1.296   c4.448,3.733,5.027,10.366,1.296,14.814L305.708,139.775z M366.134,204.369l-28.534,5.032c-0.618,0.108-1.23,0.162-1.838,0.162   c-5.007,0-9.444-3.59-10.343-8.691c-1.009-5.719,2.81-11.173,8.528-12.181l28.534-5.032c5.72-1.008,11.175,2.811,12.183,8.53   C375.672,197.906,371.853,203.36,366.134,204.369z"
       id="path5" /></g><g
     id="g7" /><g
     id="g9" /><g
     id="g11" /><g
     id="g13" /><g
     id="g15" /><g
     id="g17" /><g
     id="g19" /><g
     id="g21" /><g
     id="g23" /><g
     id="g25" /><g
     id="g27" /><g
     id="g29" /><g
     id="g31" /><g
     id="g33" /><g
     id="g35" /></svg>